<?xml version="1.0" encoding="UTF-8" standalone="no"?>
<!-- Created with Inkscape (http://www.inkscape.org/) -->
<svg xmlns:dc="http://purl.org/dc/elements/1.1/" xmlns:cc="http://creativecommons.org/ns#" xmlns:rdf="http://www.w3.org/1999/02/22-rdf-syntax-ns#" xmlns:svg="http://www.w3.org/2000/svg" xmlns="http://www.w3.org/2000/svg" xmlns:sodipodi="http://sodipodi.sourceforge.net/DTD/sodipodi-0.dtd" xmlns:inkscape="http://www.inkscape.org/namespaces/inkscape" width="449.24182" height="331.77341" id="svg2" sodipodi:version="0.32" inkscape:version="0.46" version="1.0" sodipodi:docname="TiemposServo.svg" inkscape:output_extension="org.inkscape.output.svg.inkscape">
  <defs id="defs4">
    <marker inkscape:stockid="Arrow1Mstart" orient="auto" refY="0" refX="0" id="Arrow1Mstart" style="overflow:visible">
      <path id="path3356" d="M 0,0 L 5,-5 L -12.5,0 L 5,5 L 0,0 z" style="fill-rule:evenodd;stroke:#000000;stroke-width:1pt;marker-start:none" transform="matrix(0.4,0,0,0.4,4,0)"/>
    </marker>
    <marker inkscape:stockid="Arrow1Mend" orient="auto" refY="0" refX="0" id="Arrow1Mend" style="overflow:visible">
      <path id="path3359" d="M 0,0 L 5,-5 L -12.5,0 L 5,5 L 0,0 z" style="fill-rule:evenodd;stroke:#000000;stroke-width:1pt;marker-start:none" transform="matrix(-0.4,0,0,-0.4,-4,0)"/>
    </marker>
    <inkscape:perspective sodipodi:type="inkscape:persp3d" inkscape:vp_x="0 : 526.18109 : 1" inkscape:vp_y="0 : 1000 : 0" inkscape:vp_z="744.09448 : 526.18109 : 1" inkscape:persp3d-origin="372.04724 : 350.78739 : 1" id="perspective10"/>
    <inkscape:perspective id="perspective2398" inkscape:persp3d-origin="372.04724 : 350.78739 : 1" inkscape:vp_z="744.09448 : 526.18109 : 1" inkscape:vp_y="0 : 1000 : 0" inkscape:vp_x="0 : 526.18109 : 1" sodipodi:type="inkscape:persp3d"/>
  </defs>
  <sodipodi:namedview id="base" pagecolor="#ffffff" bordercolor="#666666" borderopacity="1.0" inkscape:pageopacity="0.0" inkscape:pageshadow="2" inkscape:zoom="0.98994949" inkscape:cx="130.46338" inkscape:cy="127.20339" inkscape:document-units="px" inkscape:current-layer="layer1" showgrid="false" showguides="true" inkscape:guide-bbox="true" inkscape:window-width="1440" inkscape:window-height="814" inkscape:window-x="-4" inkscape:window-y="-4"/>
  <metadata id="metadata7">
    <rdf:RDF>
      <cc:Work rdf:about="">
        <dc:format>image/svg+xml</dc:format>
        <dc:type rdf:resource="http://purl.org/dc/dcmitype/StillImage"/>
      </cc:Work>
    </rdf:RDF>
  </metadata>
  <g inkscape:label="Capa 1" inkscape:groupmode="layer" id="layer1" transform="translate(-199.76344,-319.12111)">
    <path style="fill:none;fill-rule:evenodd;stroke:#000000;stroke-width:2.55716062px;stroke-linecap:butt;stroke-linejoin:miter;stroke-opacity:1" d="M 202.51454,402.45468 L 202.51454,342.03763 L 208.90742,342.03763 L 208.90742,401.56672 L 354.66559,401.56672 L 354.66559,342.68339 L 362.33707,342.68339 L 362.33707,401.56672 L 508.09524,401.56672" id="path3331" sodipodi:nodetypes="ccccccccc"/>
    <path style="fill:none;fill-rule:evenodd;stroke:#000000;stroke-width:2.55716062px;stroke-linecap:butt;stroke-linejoin:miter;stroke-opacity:1" d="M 202.51454,498.48209 L 202.51454,440.47206 L 231.92188,440.47206 L 231.92188,497.91131 L 354.66559,497.91131 L 354.66559,441.11782 L 385.35151,441.11782 L 385.35151,497.91131 L 508.09524,497.91131" id="path3333" sodipodi:nodetypes="ccccccccc"/>
    <path style="fill:none;fill-rule:evenodd;stroke:#000000;stroke-width:2.55716062px;stroke-linecap:butt;stroke-linejoin:miter;stroke-opacity:1" d="M 201.64693,602.95176 L 201.64693,544.94174 L 254.02305,544.94174 L 254.02305,602.38099 L 353.798,602.38099 L 353.798,545.5875 L 407.4527,545.5875 L 407.4527,602.38099 L 507.22763,602.38099" id="path3335" sodipodi:nodetypes="ccccccccc"/>
    <g id="g6257" transform="matrix(2.5571607,0,0,2.5571607,-311.06378,-496.92282)">
      <path style="fill:#ff0000;fill-opacity:1;fill-rule:evenodd;stroke:none;stroke-width:0.30000001;stroke-linecap:butt;stroke-linejoin:miter;stroke-miterlimit:4;stroke-dasharray:none;stroke-opacity:1" d="M 201.31437,404.10236 L 201.28223,404.57928 L 220.12195,404.57928 L 220.12195,404.10236 L 201.31437,404.10236 z" id="path5678" sodipodi:nodetypes="ccccc"/>
      <path style="fill:#ff0000;fill-opacity:1;fill-rule:evenodd;stroke:none;stroke-width:0.12pt;marker-start:none" d="M 201.45791,404.34932 L 202.06861,403.43365 L 199.93117,404.34932 L 202.06861,405.26499 L 201.45791,404.34932 z" id="path6229"/>
      <path style="fill:#ff0000;fill-opacity:1;fill-rule:evenodd;stroke:none;stroke-width:0.12pt;marker-start:none" d="M 220.02823,404.34932 L 219.41753,405.26499 L 221.55497,404.34932 L 219.41753,403.43365 L 220.02823,404.34932 z" id="path6231"/>
    </g>
    <g id="g6302" transform="matrix(0,2.5571607,2.5571607,0,-312.96943,-503.01719)">
      <path transform="translate(-3.9579397,0.6940847)" d="M 353.55338,336.79538 A 9.7227182,9.7227182 0 1 1 334.10794,336.79538 A 9.7227182,9.7227182 0 1 1 353.55338,336.79538 z" sodipodi:ry="9.7227182" sodipodi:rx="9.7227182" sodipodi:cy="336.79538" sodipodi:cx="343.83066" id="path5686" style="fill:none;fill-opacity:1;stroke:#000000;stroke-width:0.30000001;stroke-miterlimit:4;stroke-dasharray:none;stroke-dashoffset:0;stroke-opacity:1" sodipodi:type="arc"/>
      <path id="path5688" d="M 339.97063,337.52055 L 339.97063,329.48483" style="fill:none;fill-rule:evenodd;stroke:#000000;stroke-width:0.5;stroke-linecap:butt;stroke-linejoin:miter;marker-end:url(#Arrow1Mend);stroke-miterlimit:4;stroke-dasharray:none;stroke-opacity:1"/>
    </g>
    <g id="g6262" transform="matrix(1.5119084,0,0,2.380847,-101.11664,-531.69997)">
      <g id="g6270" transform="matrix(0.9901237,0,0,1.074055,2.1881646,-29.333802)">
        <path style="fill:#ff0000;fill-opacity:1;fill-rule:evenodd;stroke:none;stroke-width:0.30000001;stroke-linecap:butt;stroke-linejoin:miter;stroke-miterlimit:4;stroke-dasharray:none;stroke-opacity:1" d="M 201.31437,404.10236 L 201.28223,404.57928 L 220.12195,404.57928 L 220.12195,404.10236 L 201.31437,404.10236 z" id="path6272" sodipodi:nodetypes="ccccc"/>
        <path style="fill:#ff0000;fill-opacity:1;fill-rule:evenodd;stroke:none;stroke-width:0.12pt;marker-start:none" d="M 201.45791,404.34932 L 202.06861,403.43365 L 199.93117,404.34932 L 202.06861,405.26499 L 201.45791,404.34932 z" id="path6274"/>
        <path style="fill:#ff0000;fill-opacity:1;fill-rule:evenodd;stroke:none;stroke-width:0.12pt;marker-start:none" d="M 220.02823,404.34932 L 219.41753,405.26499 L 221.55497,404.34932 L 219.41753,403.43365 L 220.02823,404.34932 z" id="path6276"/>
      </g>
    </g>
    <g id="g6278" transform="matrix(0.5890417,0,0,1.7885964,81.995646,-387.56186)">
      <path style="fill:#ff0000;fill-opacity:1;fill-rule:evenodd;stroke:none;stroke-width:0.30000001;stroke-linecap:butt;stroke-linejoin:miter;stroke-miterlimit:4;stroke-dasharray:none;stroke-opacity:1" d="M 201.31437,404.10236 L 201.28223,404.57928 L 220.12195,404.57928 L 220.12195,404.10236 L 201.31437,404.10236 z" id="path6280" sodipodi:nodetypes="ccccc"/>
      <path style="fill:#ff0000;fill-opacity:1;fill-rule:evenodd;stroke:none;stroke-width:0.12pt;marker-start:none" d="M 201.45791,404.34932 L 202.06861,403.43365 L 199.93117,404.34932 L 202.06861,405.26499 L 201.45791,404.34932 z" id="path6282"/>
      <path style="fill:#ff0000;fill-opacity:1;fill-rule:evenodd;stroke:none;stroke-width:0.12pt;marker-start:none" d="M 220.02823,404.34932 L 219.41753,405.26499 L 221.55497,404.34932 L 219.41753,403.43365 L 220.02823,404.34932 z" id="path6284"/>
    </g>
    <g id="g6294" transform="matrix(2.5571607,0,0,2.5571607,-319.06378,-496.92282)">
      <path transform="translate(-3.8600257,38.694085)" d="M 353.55338,336.79538 A 9.7227182,9.7227182 0 1 1 334.10794,336.79538 A 9.7227182,9.7227182 0 1 1 353.55338,336.79538 z" sodipodi:ry="9.7227182" sodipodi:rx="9.7227182" sodipodi:cy="336.79538" sodipodi:cx="343.83066" id="path6286" style="fill:none;fill-opacity:1;stroke:#000000;stroke-width:0.30000001;stroke-miterlimit:4;stroke-dasharray:none;stroke-dashoffset:0;stroke-opacity:1" sodipodi:type="arc"/>
      <path id="path6288" d="M 340.06854,375.52055 L 340.06854,367.48483" style="fill:none;fill-rule:evenodd;stroke:#000000;stroke-width:0.5;stroke-linecap:butt;stroke-linejoin:miter;marker-end:url(#Arrow1Mend);stroke-miterlimit:4;stroke-dasharray:none;stroke-opacity:1"/>
    </g>
    <g id="g6298" transform="matrix(0,-2.5571607,-2.5571607,0,1619.8927,1442.0335)">
      <path transform="translate(-2.0743114,79.694085)" d="M 353.55338,336.79538 A 9.7227182,9.7227182 0 1 1 334.10794,336.79538 A 9.7227182,9.7227182 0 1 1 353.55338,336.79538 z" sodipodi:ry="9.7227182" sodipodi:rx="9.7227182" sodipodi:cy="336.79538" sodipodi:cx="343.83066" id="path6290" style="fill:none;fill-opacity:1;stroke:#000000;stroke-width:0.30000001;stroke-miterlimit:4;stroke-dasharray:none;stroke-dashoffset:0;stroke-opacity:1" sodipodi:type="arc"/>
      <path id="path6292" d="M 341.85425,416.52055 L 341.85425,408.48483" style="fill:none;fill-rule:evenodd;stroke:#000000;stroke-width:0.5;stroke-linecap:butt;stroke-linejoin:miter;marker-end:url(#Arrow1Mend);stroke-miterlimit:4;stroke-dasharray:none;stroke-opacity:1"/>
    </g>
    <path style="font-size:40.91456985px;font-style:normal;font-weight:normal;fill:#000000;fill-opacity:1;stroke:none;stroke-width:1px;stroke-linecap:butt;stroke-linejoin:miter;stroke-opacity:1;font-family:Bitstream Vera Sans" d="M 591.6275,371.44107 C 591.6275,368.90202 591.88873,366.85857 592.41119,365.3107 C 592.93365,363.76287 593.71002,362.56902 594.7403,361.72916 C 595.77056,360.88933 597.06695,360.46941 598.62946,360.46939 C 599.78179,360.46941 600.79253,360.70135 601.66168,361.16519 C 602.53081,361.62908 603.24858,362.29802 603.815,363.17203 C 604.38139,364.04607 604.82573,365.11052 605.14801,366.36539 C 605.47026,367.62028 605.63139,369.31218 605.63141,371.44107 C 605.63139,373.96061 605.3726,375.9943 604.85504,377.54214 C 604.33745,379.09 603.56352,380.28629 602.53326,381.13101 C 601.50298,381.97574 600.20171,382.3981 598.62946,382.3981 C 596.55914,382.3981 594.93316,381.65591 593.75153,380.17154 C 592.33551,378.38443 591.6275,375.47428 591.6275,371.44107 L 591.6275,371.44107 z M 594.33746,371.44107 C 594.33746,374.96647 594.75006,377.31266 595.57526,378.47964 C 596.40045,379.64664 597.41851,380.23013 598.62946,380.23013 C 599.84038,380.23013 600.85845,379.6442 601.68365,378.47232 C 602.50884,377.30045 602.92144,374.9567 602.92145,371.44107 C 602.92144,367.90593 602.50884,365.5573 601.68365,364.39517 C 600.85845,363.23308 599.83062,362.65203 598.60016,362.65201 C 597.38921,362.65203 596.42242,363.16472 595.69977,364.19009 C 594.79156,365.4987 594.33746,367.91569 594.33746,371.44107 L 594.33746,371.44107 z M 608.9566,364.24869 C 608.9566,363.12566 609.35455,362.16863 610.15045,361.37759 C 610.94635,360.5866 611.90094,360.19109 613.01422,360.19107 C 614.14703,360.19109 615.10894,360.5866 615.89996,361.37759 C 616.69097,362.16863 617.08648,363.12566 617.08649,364.24869 C 617.08648,365.37175 616.68853,366.33122 615.89264,367.12711 C 615.09673,367.92302 614.13726,368.32097 613.01422,368.32095 C 611.90094,368.32097 610.94635,367.92546 610.15045,367.13443 C 609.35455,366.34343 608.9566,365.38152 608.9566,364.24869 L 608.9566,364.24869 z M 610.55328,364.24869 C 610.55328,364.9323 610.79498,365.51579 611.27838,365.99918 C 611.76178,366.48259 612.34527,366.72429 613.02887,366.72427 C 613.70269,366.72429 614.2813,366.48259 614.76471,365.99918 C 615.2481,365.51579 615.4898,364.9323 615.48981,364.24869 C 615.4898,363.56511 615.2481,362.98162 614.76471,362.4982 C 614.2813,362.01482 613.70269,361.77312 613.02887,361.7731 C 612.34527,361.77312 611.76178,362.01482 611.27838,362.4982 C 610.79498,362.98162 610.55328,363.56511 610.55328,364.24869 L 610.55328,364.24869 z" id="text6306"/>
    <path style="font-size:40.91456985px;font-style:normal;font-weight:normal;fill:#000000;fill-opacity:1;stroke:none;stroke-width:1px;stroke-linecap:butt;stroke-linejoin:miter;stroke-opacity:1;font-family:Bitstream Vera Sans" d="M 587.45654,471.13315 L 589.99072,470.89877 C 590.20556,472.09018 590.61572,472.95444 591.22119,473.49155 C 591.82665,474.02866 592.60302,474.29721 593.55029,474.29721 C 594.36083,474.29721 595.07128,474.11167 595.68164,473.74057 C 596.29198,473.36948 596.79247,472.87387 597.18311,472.25375 C 597.57372,471.63364 597.90087,470.79624 598.16455,469.74155 C 598.42821,468.68687 598.56005,467.61265 598.56006,466.51889 C 598.56005,466.40171 598.55516,466.22593 598.54541,465.99155 C 598.01805,466.8314 597.29784,467.51255 596.38477,468.035 C 595.47167,468.55747 594.4829,468.8187 593.41846,468.8187 C 591.64111,468.8187 590.1372,468.17417 588.90674,466.8851 C 587.67627,465.59605 587.06103,463.89683 587.06104,461.78745 C 587.06103,459.60973 587.70312,457.8568 588.9873,456.52866 C 590.27148,455.20055 591.88037,454.53649 593.81396,454.53647 C 595.21044,454.53649 596.48729,454.91247 597.64453,455.6644 C 598.80174,456.41637 599.68065,457.48815 600.28125,458.87973 C 600.88182,460.27135 601.18211,462.28551 601.18213,464.92221 C 601.18211,467.66636 600.88426,469.85142 600.28857,471.47739 C 599.69286,473.10337 598.80663,474.34116 597.62988,475.19077 C 596.45311,476.04037 595.07372,476.46518 593.4917,476.46518 C 591.81201,476.46518 590.43994,475.99887 589.37549,475.06625 C 588.31103,474.13364 587.67138,472.8226 587.45654,471.13315 L 587.45654,471.13315 z M 598.25244,461.65561 C 598.25243,460.14195 597.8496,458.94078 597.04395,458.05209 C 596.23827,457.16344 595.26903,456.71911 594.13623,456.71909 C 592.96435,456.71911 591.94384,457.19762 591.07471,458.15463 C 590.20556,459.11168 589.77099,460.35191 589.771,461.87534 C 589.77099,463.24254 590.18359,464.35337 591.00879,465.20786 C 591.83398,466.06236 592.85204,466.4896 594.06299,466.48959 C 595.28368,466.4896 596.2871,466.06236 597.07324,465.20786 C 597.85936,464.35337 598.25243,463.16929 598.25244,461.65561 L 598.25244,461.65561 z M 603.76025,465.50815 C 603.76025,462.9691 604.02148,460.92564 604.54395,459.37778 C 605.0664,457.82994 605.84277,456.6361 606.87305,455.79623 C 607.90331,454.95641 609.1997,454.53649 610.76221,454.53647 C 611.91454,454.53649 612.92528,454.76842 613.79443,455.23227 C 614.66356,455.69616 615.38133,456.3651 615.94775,457.23911 C 616.51415,458.11315 616.95848,459.1776 617.28076,460.43246 C 617.60301,461.68736 617.76414,463.37925 617.76416,465.50815 C 617.76414,468.02769 617.50536,470.06138 616.98779,471.60922 C 616.4702,473.15708 615.69628,474.35336 614.66602,475.19809 C 613.63573,476.04282 612.33446,476.46518 610.76221,476.46518 C 608.69189,476.46518 607.06591,475.72299 605.88428,474.23862 C 604.46826,472.45151 603.76025,469.54136 603.76025,465.50815 L 603.76025,465.50815 z M 606.47021,465.50815 C 606.47021,469.03355 606.88281,471.37973 607.70801,472.54672 C 608.5332,473.71372 609.55126,474.29721 610.76221,474.29721 C 611.97314,474.29721 612.9912,473.71128 613.81641,472.5394 C 614.64159,471.36753 615.05419,469.02378 615.0542,465.50815 C 615.05419,461.97301 614.64159,459.62438 613.81641,458.46225 C 612.9912,457.30016 611.96337,456.71911 610.73291,456.71909 C 609.52197,456.71911 608.55517,457.2318 607.83252,458.25717 C 606.92431,459.56578 606.47021,461.98277 606.47021,465.50815 L 606.47021,465.50815 z M 621.08936,458.31577 C 621.08935,457.19274 621.4873,456.23571 622.2832,455.44467 C 623.0791,454.65368 624.03369,454.25817 625.14697,454.25815 C 626.27978,454.25817 627.24169,454.65368 628.03271,455.44467 C 628.82372,456.23571 629.21923,457.19274 629.21924,458.31577 C 629.21923,459.43883 628.82128,460.3983 628.02539,461.19418 C 627.22948,461.9901 626.27001,462.38804 625.14697,462.38803 C 624.03369,462.38804 623.0791,461.99254 622.2832,461.20151 C 621.4873,460.41051 621.08935,459.44859 621.08936,458.31577 L 621.08936,458.31577 z M 622.68604,458.31577 C 622.68603,458.99938 622.92773,459.58287 623.41113,460.06625 C 623.89453,460.54967 624.47802,460.79137 625.16162,460.79135 C 625.83544,460.79137 626.41406,460.54967 626.89746,460.06625 C 627.38085,459.58287 627.62255,458.99938 627.62256,458.31577 C 627.62255,457.63219 627.38085,457.04869 626.89746,456.56528 C 626.41406,456.0819 625.83544,455.8402 625.16162,455.84018 C 624.47802,455.8402 623.89453,456.0819 623.41113,456.56528 C 622.92773,457.04869 622.68603,457.63219 622.68604,458.31577 L 622.68604,458.31577 z" id="text6310"/>
    <path style="font-size:40.91456985px;font-style:normal;font-weight:normal;fill:#000000;fill-opacity:1;stroke:none;stroke-width:1px;stroke-linecap:butt;stroke-linejoin:miter;stroke-opacity:1;font-family:Bitstream Vera Sans" d="M 596.07947,581.58179 L 593.44275,581.58179 L 593.44275,564.78003 C 592.80798,565.38551 591.97546,565.99098 590.94519,566.59644 C 589.91491,567.20192 588.98962,567.65602 588.16931,567.95874 L 588.16931,565.40991 C 589.64392,564.71657 590.93298,563.87673 592.0365,562.89038 C 593.14001,561.90407 593.92126,560.94704 594.38025,560.01929 L 596.07947,560.01929 L 596.07947,581.58179 z M 606.90466,569.93628 C 605.81091,569.5359 605.00036,568.96461 604.47302,568.22241 C 603.94568,567.48024 603.682,566.59157 603.68201,565.5564 C 603.682,563.99391 604.24353,562.68044 605.36658,561.61597 C 606.48962,560.55153 607.98376,560.01931 609.849,560.01929 C 611.72399,560.01931 613.23278,560.56374 614.37537,561.65259 C 615.51793,562.74147 616.08922,564.06716 616.08923,565.62964 C 616.08922,566.62575 615.82799,567.49245 615.30554,568.22974 C 614.78307,568.96705 613.98961,569.5359 612.92517,569.93628 C 614.24352,570.36598 615.24693,571.05934 615.93542,572.01636 C 616.62389,572.9734 616.96812,574.11597 616.96814,575.44409 C 616.96812,577.28003 616.31871,578.823 615.0199,580.073 C 613.72106,581.323 612.01207,581.948 609.89294,581.948 C 607.7738,581.948 606.06481,581.32056 604.76599,580.06567 C 603.46716,578.81079 602.81775,577.24585 602.81775,575.37085 C 602.81775,573.97437 603.17175,572.80494 603.87976,571.86255 C 604.58777,570.92018 605.59607,570.27809 606.90466,569.93628 L 606.90466,569.93628 z M 606.37732,565.46851 C 606.37731,566.48415 606.70446,567.31422 607.35876,567.95874 C 608.01306,568.60328 608.86266,568.92555 609.90759,568.92554 C 610.92321,568.92555 611.75573,568.60573 612.40515,567.96606 C 613.05455,567.32643 613.37926,566.54274 613.37927,565.61499 C 613.37926,564.64821 613.04479,563.83522 612.37585,563.17603 C 611.7069,562.51686 610.87438,562.18728 609.8783,562.18726 C 608.87243,562.18728 608.03747,562.50954 607.37341,563.15405 C 606.70935,563.7986 606.37731,564.57009 606.37732,565.46851 L 606.37732,565.46851 z M 605.52771,575.3855 C 605.52771,576.13746 605.70593,576.86499 606.06238,577.56812 C 606.41882,578.27124 606.9486,578.81568 607.65173,579.20142 C 608.35485,579.58716 609.11169,579.78003 609.92224,579.78003 C 611.182,579.78003 612.22204,579.37476 613.04236,578.56421 C 613.86266,577.75367 614.27281,576.72339 614.27283,575.47339 C 614.27281,574.20386 613.85045,573.15406 613.00574,572.32397 C 612.161,571.49391 611.10387,571.07887 609.83435,571.07886 C 608.59411,571.07887 607.56628,571.48902 606.75085,572.30933 C 605.93542,573.12965 605.52771,574.15504 605.52771,575.3855 L 605.52771,575.3855 z M 619.54626,570.99097 C 619.54626,568.45192 619.80749,566.40846 620.32996,564.8606 C 620.85241,563.31276 621.62878,562.11892 622.65906,561.27905 C 623.68933,560.43923 624.98571,560.01931 626.54822,560.01929 C 627.70055,560.01931 628.71129,560.25124 629.58044,560.71509 C 630.44957,561.17898 631.16735,561.84792 631.73376,562.72192 C 632.30016,563.59597 632.74449,564.66042 633.06677,565.91528 C 633.38902,567.17018 633.55016,568.86207 633.55017,570.99097 C 633.55016,573.51051 633.29137,575.5442 632.7738,577.09204 C 632.25621,578.6399 631.48229,579.83618 630.45203,580.68091 C 629.42174,581.52563 628.12047,581.948 626.54822,581.948 C 624.4779,581.948 622.85192,581.20581 621.67029,579.72144 C 620.25427,577.93433 619.54626,575.02418 619.54626,570.99097 L 619.54626,570.99097 z M 622.25623,570.99097 C 622.25622,574.51636 622.66882,576.86255 623.49402,578.02954 C 624.31921,579.19654 625.33727,579.78003 626.54822,579.78003 C 627.75915,579.78003 628.77721,579.19409 629.60242,578.02222 C 630.4276,576.85035 630.8402,574.5066 630.84021,570.99097 C 630.8402,567.45582 630.4276,565.10719 629.60242,563.94507 C 628.77721,562.78298 627.74938,562.20192 626.51892,562.2019 C 625.30798,562.20192 624.34118,562.71462 623.61853,563.73999 C 622.71032,565.0486 622.25622,567.46559 622.25623,570.99097 L 622.25623,570.99097 z M 636.87537,563.79858 C 636.87536,562.67556 637.27331,561.71853 638.06921,560.92749 C 638.86511,560.1365 639.8197,559.74099 640.93298,559.74097 C 642.06579,559.74099 643.0277,560.1365 643.81873,560.92749 C 644.60973,561.71853 645.00524,562.67556 645.00525,563.79858 C 645.00524,564.92165 644.60729,565.88112 643.8114,566.677 C 643.01549,567.47291 642.05602,567.87086 640.93298,567.87085 C 639.8197,567.87086 638.86511,567.47536 638.06921,566.68433 C 637.27331,565.89333 636.87536,564.93141 636.87537,563.79858 L 636.87537,563.79858 z M 638.47205,563.79858 C 638.47204,564.48219 638.71374,565.06569 639.19714,565.54907 C 639.68054,566.03249 640.26403,566.27419 640.94763,566.27417 C 641.62145,566.27419 642.20007,566.03249 642.68347,565.54907 C 643.16686,565.06569 643.40856,564.48219 643.40857,563.79858 C 643.40856,563.11501 643.16686,562.53151 642.68347,562.0481 C 642.20007,561.56472 641.62145,561.32302 640.94763,561.323 C 640.26403,561.32302 639.68054,561.56472 639.19714,562.0481 C 638.71374,562.53151 638.47204,563.11501 638.47205,563.79858 L 638.47205,563.79858 z" id="text6314"/>
    <g id="g7370" style="fill:#3300ff;fill-opacity:1;stroke:#3600ff;stroke-opacity:1" transform="matrix(2.5571607,0,0,2.5571607,-309.08133,-496.92282)">
      <path style="fill:#3300ff;fill-opacity:1;fill-rule:evenodd;stroke:#3600ff;stroke-width:0.69999999;stroke-linecap:butt;stroke-linejoin:miter;stroke-miterlimit:4;stroke-dasharray:none;stroke-opacity:1" d="M 202.75,441.875 L 202.66071,442.59375 L 257.78571,442.59375 L 257.60714,441.875 L 202.75,441.875 z" id="path6326" sodipodi:nodetypes="ccccc"/>
      <path style="fill:#3300ff;fill-opacity:1;fill-rule:evenodd;stroke:#3600ff;stroke-width:0.28pt;marker-start:none;stroke-opacity:1" d="M 257.56682,442.23005 L 256.16682,443.63005 L 261.06682,442.23005 L 256.16682,440.83005 L 257.56682,442.23005 z" id="path7376"/>
      <path style="fill:#3300ff;fill-opacity:1;fill-rule:evenodd;stroke:#3600ff;stroke-width:0.28pt;marker-start:none;stroke-opacity:1" d="M 203.06274,442.23005 L 204.46274,440.83005 L 199.56274,442.23005 L 204.46274,443.63005 L 203.06274,442.23005 z" id="path7378"/>
    </g>
    <text xml:space="preserve" style="font-size:40.91456985px;font-style:normal;font-weight:normal;fill:#000000;fill-opacity:1;stroke:none;stroke-width:1px;stroke-linecap:butt;stroke-linejoin:miter;stroke-opacity:1;font-family:Bitstream Vera Sans" x="199.61098" y="330.14886" id="text7380"><tspan sodipodi:role="line" id="tspan7382" x="199.61098" y="330.14886" style="font-size:15.34296513px">1 ms</tspan></text>
    <text xml:space="preserve" style="font-size:40.91456985px;font-style:normal;font-weight:normal;fill:#000000;fill-opacity:1;stroke:none;stroke-width:1px;stroke-linecap:butt;stroke-linejoin:miter;stroke-opacity:1;font-family:Bitstream Vera Sans" x="198.69771" y="426.04242" id="text7384"><tspan sodipodi:role="line" id="tspan7386" x="198.69771" y="426.04242" style="font-size:15.34296513px">1,5 ms</tspan></text>
    <text xml:space="preserve" style="font-size:40.91456985px;font-style:normal;font-weight:normal;fill:#000000;fill-opacity:1;stroke:none;stroke-width:1px;stroke-linecap:butt;stroke-linejoin:miter;stroke-opacity:1;font-family:Bitstream Vera Sans" x="205.09064" y="529.24207" id="text7388"><tspan sodipodi:role="line" id="tspan7390" x="205.09064" y="529.24207" style="font-size:15.34296513px">2 ms</tspan></text>
    <text xml:space="preserve" style="font-size:40.91456985px;font-style:normal;font-weight:normal;fill:#000000;fill-opacity:1;stroke:none;stroke-width:1px;stroke-linecap:butt;stroke-linejoin:miter;stroke-opacity:1;font-family:Bitstream Vera Sans" x="256.07794" y="650.70721" id="text7392"><tspan sodipodi:role="line" id="tspan7394" x="256.07794" y="650.70721" style="font-size:15.34296513px">20 ms</tspan></text>
  </g>
</svg>
